<svg width="66" height="67" viewBox="0 0 66 67" fill="none" xmlns="http://www.w3.org/2000/svg"><g clip-path="url(#clip0_204_47)"><path d="M52.1843 12.3975C51.3009 12.3975 50.582 13.1273 50.582 14.024C50.582 14.9208 51.3009 15.6506 52.1843 15.6506C53.0679 15.6506 53.7866 14.921 53.7866 14.024C53.7866 13.1271 53.0679 12.3975 52.1843 12.3975Z" fill="#EFA562"/><path d="M32.9999 19.0798C25.1673 19.0798 18.7949 25.5487 18.7949 33.5C18.7949 41.4513 25.1673 47.9203 32.9999 47.9203C40.8326 47.9203 47.205 41.4514 47.205 33.5001C47.205 25.5489 40.8326 19.0798 32.9999 19.0798Z" fill="#EFA562"/><path d="M47.9071 0H18.0929C8.11645 0 0 8.23943 0 18.3672V48.633C0 58.7607 8.11645 67 18.0929 67H47.9071C57.8837 67 66 58.7606 66 48.633V18.3672C66 8.23943 57.8837 0 47.9071 0ZM33 51.8768C23.0181 51.8768 14.8976 43.6331 14.8976 33.5C14.8976 23.3669 23.0183 15.1234 33 15.1234C42.9817 15.1234 51.1026 23.367 51.1026 33.5C51.1026 43.633 42.9817 51.8768 33 51.8768ZM52.1852 19.6074C49.1526 19.6074 46.6853 17.1028 46.6853 14.0242C46.6853 10.9456 49.1526 8.44082 52.1852 8.44082C55.2179 8.44082 57.6852 10.9455 57.6852 14.0241C57.6852 17.1027 55.2179 19.6074 52.1852 19.6074Z" fill="#EFA562"/></g><defs><clipPath id="clip0_204_47"><rect width="66" height="67" fill="white"/></clipPath></defs></svg>
