<svg width="1505" height="701" viewBox="0 0 1505 701" fill="none" xmlns="http://www.w3.org/2000/svg">
<g filter="url(#filter0_d_248_4)">
<path fill-rule="evenodd" clip-rule="evenodd" d="M1051 289C1051 219.964 1106.96 164 1176 164H1376C1445.04 164 1501 219.964 1501 289C1501 358.036 1445.04 414 1376 414H1176C1106.96 414 1051 358.036 1051 289ZM1287.31 363.988C1283.31 371.244 1274.32 373.65 1267.24 369.362L1235.57 350.202C1219.28 366.443 1196.82 376.484 1172 376.484C1122.3 376.484 1082 336.19 1082 286.484C1082 236.779 1122.3 196.484 1172 196.484C1221.71 196.484 1262 236.779 1262 286.484C1262 299.187 1259.37 311.275 1254.62 322.234L1283.56 339.738C1290.65 344.026 1293.15 353.384 1289.15 360.64L1287.31 363.988Z" fill="#1D1D1B"/>
</g>
<g filter="url(#filter1_d_248_4)">
<path d="M170.163 381.92C126.703 381.92 90.7596 367.57 62.333 338.87C33.9063 310.17 19.693 275.047 19.693 233.5C19.693 191.953 33.9063 156.83 62.333 128.13C90.7596 99.43 126.703 85.08 170.163 85.08C196.676 85.08 221.003 91.5033 243.143 104.35C265.283 116.923 282.366 134.007 294.393 155.6L268.973 170.36C259.953 152.867 246.56 138.927 228.793 128.54C211.026 118.153 191.483 112.96 170.163 112.96C134.356 112.96 105.11 124.577 82.423 147.81C59.7363 171.043 48.393 199.607 48.393 233.5C48.393 267.393 59.7363 295.957 82.423 319.19C105.11 342.423 134.356 354.04 170.163 354.04C191.483 354.04 211.026 348.847 228.793 338.46C246.56 328.073 259.953 314.133 268.973 296.64L294.393 310.99C282.64 332.583 265.556 349.803 243.143 362.65C221.003 375.497 196.676 381.92 170.163 381.92ZM447.371 167.08C476.618 167.08 501.491 177.467 521.991 198.24C542.764 219.013 553.151 244.433 553.151 274.5C553.151 304.567 542.764 329.987 521.991 350.76C501.491 371.533 476.618 381.92 447.371 381.92C411.018 381.92 383.411 366.887 364.551 336.82V459H337.491V172H364.551V212.18C383.411 182.113 411.018 167.08 447.371 167.08ZM387.921 332.31C403.501 347.89 422.634 355.68 445.321 355.68C468.008 355.68 487.141 347.89 502.721 332.31C518.301 316.457 526.091 297.187 526.091 274.5C526.091 251.813 518.301 232.68 502.721 217.1C487.141 201.247 468.008 193.32 445.321 193.32C422.634 193.32 403.501 201.247 387.921 217.1C372.341 232.68 364.551 251.813 364.551 274.5C364.551 297.187 372.341 316.457 387.921 332.31ZM692.855 167.08C723.195 167.08 747.659 177.877 766.245 199.47C785.105 220.79 794.535 246.073 794.535 275.32C794.535 278.327 794.262 282.563 793.715 288.03H613.725C616.459 308.803 625.205 325.34 639.965 337.64C654.999 349.667 673.449 355.68 695.315 355.68C710.895 355.68 724.289 352.537 735.495 346.25C746.975 339.69 755.585 331.217 761.325 320.83L785.105 334.77C776.085 349.257 763.785 360.737 748.205 369.21C732.625 377.683 714.859 381.92 694.905 381.92C662.652 381.92 636.412 371.807 616.185 351.58C595.959 331.353 585.845 305.66 585.845 274.5C585.845 243.887 595.822 218.33 615.775 197.83C635.729 177.33 661.422 167.08 692.855 167.08ZM692.855 193.32C671.535 193.32 653.632 199.743 639.145 212.59C624.932 225.163 616.459 241.563 613.725 261.79H766.655C763.922 240.197 755.585 223.387 741.645 211.36C727.705 199.333 711.442 193.32 692.855 193.32ZM1001.77 350.76H1030.47V431.94H1003.41V377H836.131V431.94H809.071V350.76H834.081C848.021 332.447 854.991 306.617 854.991 273.27V172H1001.77V350.76ZM866.881 350.76H974.711V198.24H882.051V273.27C882.051 304.703 876.994 330.533 866.881 350.76Z" fill="#1D1D1B"/>
</g>
<g filter="url(#filter2_d_248_4)">
<path d="M156.6 600.6C167.533 604.6 173 612.4 173 624C173 632.133 170.267 638.867 164.8 644.2C159.467 649.4 151.733 652 141.6 652H93V552H137.6C147.333 552 154.867 554.533 160.2 559.6C165.533 564.533 168.2 570.933 168.2 578.8C168.2 588.8 164.333 596.067 156.6 600.6ZM137.6 564.8H106.2V595.2H137.6C149.2 595.2 155 590 155 579.6C155 574.933 153.467 571.333 150.4 568.8C147.467 566.133 143.2 564.8 137.6 564.8ZM141.6 639.2C147.467 639.2 151.933 637.8 155 635C158.2 632.2 159.8 628.267 159.8 623.2C159.8 618.533 158.2 614.867 155 612.2C151.933 609.4 147.467 608 141.6 608H106.2V639.2H141.6ZM273.8 652H256.2L206.2 603.8V652H193V552H206.2V596.2L253.8 552H271.8L220.2 600L273.8 652ZM359.922 552H373.922L331.122 661.2C327.255 671.067 321.722 678.8 314.522 684.4C307.455 690.133 299.522 692.667 290.722 692V679.6C302.722 680.933 311.855 674 318.122 658.8L320.722 652.6L275.922 552H289.922L327.522 635.8L359.922 552ZM432.569 654.4C417.502 654.4 404.969 649.4 394.969 639.4C384.969 629.267 379.969 616.8 379.969 602C379.969 587.2 384.969 574.8 394.969 564.8C404.969 554.667 417.502 549.6 432.569 549.6C442.435 549.6 451.302 552 459.169 556.8C467.035 561.467 472.769 567.8 476.369 575.8L465.569 582C462.902 576 458.569 571.267 452.569 567.8C446.702 564.2 440.035 562.4 432.569 562.4C421.502 562.4 412.169 566.267 404.569 574C396.969 581.6 393.169 590.933 393.169 602C393.169 613.067 396.969 622.467 404.569 630.2C412.169 637.8 421.502 641.6 432.569 641.6C440.035 641.6 446.702 639.867 452.569 636.4C458.435 632.8 463.035 628 466.369 622L477.369 628.4C473.235 636.4 467.169 642.733 459.169 647.4C451.169 652.067 442.302 654.4 432.569 654.4ZM567.12 552H580.32V652H567.12V608.4H509.52V652H496.32V552H509.52V595.6H567.12V552ZM692.034 639.4C681.901 649.4 669.501 654.4 654.834 654.4C640.168 654.4 627.701 649.4 617.434 639.4C607.301 629.267 602.234 616.8 602.234 602C602.234 587.2 607.301 574.8 617.434 564.8C627.701 554.667 640.168 549.6 654.834 549.6C669.501 549.6 681.901 554.667 692.034 564.8C702.301 574.8 707.434 587.2 707.434 602C707.434 616.8 702.301 629.267 692.034 639.4ZM626.834 630.2C634.434 637.8 643.768 641.6 654.834 641.6C665.901 641.6 675.234 637.8 682.834 630.2C690.434 622.467 694.234 613.067 694.234 602C694.234 590.933 690.434 581.6 682.834 574C675.234 566.267 665.901 562.4 654.834 562.4C643.768 562.4 634.434 566.267 626.834 574C619.234 581.6 615.434 590.933 615.434 602C615.434 613.067 619.234 622.467 626.834 630.2ZM793.523 552V564.8H742.723V652H729.523V552H793.523ZM889.495 639.4C879.362 649.4 866.962 654.4 852.295 654.4C837.629 654.4 825.162 649.4 814.895 639.4C804.762 629.267 799.695 616.8 799.695 602C799.695 587.2 804.762 574.8 814.895 564.8C825.162 554.667 837.629 549.6 852.295 549.6C866.962 549.6 879.362 554.667 889.495 564.8C899.762 574.8 904.895 587.2 904.895 602C904.895 616.8 899.762 629.267 889.495 639.4ZM824.295 630.2C831.895 637.8 841.229 641.6 852.295 641.6C863.362 641.6 872.695 637.8 880.295 630.2C887.895 622.467 891.695 613.067 891.695 602C891.695 590.933 887.895 581.6 880.295 574C872.695 566.267 863.362 562.4 852.295 562.4C841.229 562.4 831.895 566.267 824.295 574C816.695 581.6 812.895 590.933 812.895 602C812.895 613.067 816.695 622.467 824.295 630.2ZM1057.78 652H1040.18L990.184 603.8V652H976.984V552H990.184V596.2L1037.78 552H1055.78L1004.18 600L1057.78 652ZM1149.65 639.4C1139.52 649.4 1127.12 654.4 1112.45 654.4C1097.78 654.4 1085.32 649.4 1075.05 639.4C1064.92 629.267 1059.85 616.8 1059.85 602C1059.85 587.2 1064.92 574.8 1075.05 564.8C1085.32 554.667 1097.78 549.6 1112.45 549.6C1127.12 549.6 1139.52 554.667 1149.65 564.8C1159.92 574.8 1165.05 587.2 1165.05 602C1165.05 616.8 1159.92 629.267 1149.65 639.4ZM1084.45 630.2C1092.05 637.8 1101.38 641.6 1112.45 641.6C1123.52 641.6 1132.85 637.8 1140.45 630.2C1148.05 622.467 1151.85 613.067 1151.85 602C1151.85 590.933 1148.05 581.6 1140.45 574C1132.85 566.267 1123.52 562.4 1112.45 562.4C1101.38 562.4 1092.05 566.267 1084.45 574C1076.85 581.6 1073.05 590.933 1073.05 602C1073.05 613.067 1076.85 622.467 1084.45 630.2ZM1284.74 566.4C1294.34 576.133 1299.14 588 1299.14 602C1299.14 616 1294.34 627.867 1284.74 637.6C1275.14 647.333 1262.47 652.867 1246.74 654.2V692H1233.54V654.2C1217.81 652.867 1205.14 647.333 1195.54 637.6C1185.94 627.867 1181.14 616 1181.14 602C1181.14 588 1185.94 576.133 1195.54 566.4C1205.14 556.667 1217.81 551.133 1233.54 549.8V512H1246.74V549.8C1262.47 551.133 1275.14 556.667 1284.74 566.4ZM1204.94 575.6C1197.87 582.8 1194.34 591.6 1194.34 602C1194.34 612.4 1197.87 621.267 1204.94 628.6C1212.01 635.8 1221.54 640 1233.54 641.2V562.8C1221.54 564 1212.01 568.267 1204.94 575.6ZM1246.74 641.2C1258.74 640 1268.27 635.8 1275.34 628.6C1282.41 621.267 1285.94 612.4 1285.94 602C1285.94 591.6 1282.41 582.8 1275.34 575.6C1268.27 568.267 1258.74 564 1246.74 562.8V641.2ZM1367.33 549.6C1382.13 549.6 1394.06 554.867 1403.13 565.4C1412.33 575.8 1416.93 588.133 1416.93 602.4C1416.93 603.867 1416.79 605.933 1416.53 608.6H1328.73C1330.06 618.733 1334.33 626.8 1341.53 632.8C1348.86 638.667 1357.86 641.6 1368.53 641.6C1376.13 641.6 1382.66 640.067 1388.13 637C1393.73 633.8 1397.93 629.667 1400.73 624.6L1412.33 631.4C1407.93 638.467 1401.93 644.067 1394.33 648.2C1386.73 652.333 1378.06 654.4 1368.33 654.4C1352.59 654.4 1339.79 649.467 1329.93 639.6C1320.06 629.733 1315.13 617.2 1315.13 602C1315.13 587.067 1319.99 574.6 1329.73 564.6C1339.46 554.6 1351.99 549.6 1367.33 549.6ZM1367.33 562.4C1356.93 562.4 1348.19 565.533 1341.13 571.8C1334.19 577.933 1330.06 585.933 1328.73 595.8H1403.33C1401.99 585.267 1397.93 577.067 1391.13 571.2C1384.33 565.333 1376.39 562.4 1367.33 562.4Z" fill="#1D1D1B"/>
</g>
<defs>
<filter id="filter0_d_248_4" x="1047" y="164" width="458" height="258" filterUnits="userSpaceOnUse" color-interpolation-filters="sRGB">
<feFlood flood-opacity="0" result="BackgroundImageFix"/>
<feColorMatrix in="SourceAlpha" type="matrix" values="0 0 0 0 0 0 0 0 0 0 0 0 0 0 0 0 0 0 127 0" result="hardAlpha"/>
<feOffset dy="4"/>
<feGaussianBlur stdDeviation="2"/>
<feComposite in2="hardAlpha" operator="out"/>
<feColorMatrix type="matrix" values="0 0 0 0 0 0 0 0 0 0 0 0 0 0 0 0 0 0 0.25 0"/>
<feBlend mode="normal" in2="BackgroundImageFix" result="effect1_dropShadow_248_4"/>
<feBlend mode="normal" in="SourceGraphic" in2="effect1_dropShadow_248_4" result="shape"/>
</filter>
<filter id="filter1_d_248_4" x="15.6934" y="85.0801" width="1018.78" height="381.92" filterUnits="userSpaceOnUse" color-interpolation-filters="sRGB">
<feFlood flood-opacity="0" result="BackgroundImageFix"/>
<feColorMatrix in="SourceAlpha" type="matrix" values="0 0 0 0 0 0 0 0 0 0 0 0 0 0 0 0 0 0 127 0" result="hardAlpha"/>
<feOffset dy="4"/>
<feGaussianBlur stdDeviation="2"/>
<feComposite in2="hardAlpha" operator="out"/>
<feColorMatrix type="matrix" values="0 0 0 0 0 0 0 0 0 0 0 0 0 0 0 0 0 0 0.25 0"/>
<feBlend mode="normal" in2="BackgroundImageFix" result="effect1_dropShadow_248_4"/>
<feBlend mode="normal" in="SourceGraphic" in2="effect1_dropShadow_248_4" result="shape"/>
</filter>
<filter id="filter2_d_248_4" x="89" y="512" width="1331.93" height="189" filterUnits="userSpaceOnUse" color-interpolation-filters="sRGB">
<feFlood flood-opacity="0" result="BackgroundImageFix"/>
<feColorMatrix in="SourceAlpha" type="matrix" values="0 0 0 0 0 0 0 0 0 0 0 0 0 0 0 0 0 0 127 0" result="hardAlpha"/>
<feOffset dy="4"/>
<feGaussianBlur stdDeviation="2"/>
<feComposite in2="hardAlpha" operator="out"/>
<feColorMatrix type="matrix" values="0 0 0 0 0 0 0 0 0 0 0 0 0 0 0 0 0 0 0.25 0"/>
<feBlend mode="normal" in2="BackgroundImageFix" result="effect1_dropShadow_248_4"/>
<feBlend mode="normal" in="SourceGraphic" in2="effect1_dropShadow_248_4" result="shape"/>
</filter>
</defs>
</svg>
