<svg width="79" height="75" viewBox="0 0 79 75" fill="none" xmlns="http://www.w3.org/2000/svg">
<path d="M77.3765 1.64797C76.1068 0.39108 74.3023 -0.027774 72.6666 0.554624L3.27268 25.2697C1.38148 25.9432 0.0989958 27.7671 0.00543011 29.916C-0.0879814 32.0651 1.03034 34.0111 2.85448 34.8737L16.7899 41.4611L57.8185 16.8589C58.8206 16.2581 60.0783 16.5389 60.7781 17.5186C61.4781 18.4987 61.4101 19.8842 60.6183 20.7789L35.04 49.6748L29.7941 70.152L42.3848 59.9659L57.2735 73.1293C58.1407 73.8963 59.2006 74.2964 60.2813 74.2964C60.7958 74.2962 61.3153 74.2056 61.8206 74.0204C63.3876 73.4464 64.5492 72.0646 64.928 70.3243L78.7956 6.62143C79.1897 4.81061 78.6462 2.90487 77.3765 1.64797Z" fill="#EFA562"/>
</svg>
