<svg width="96" height="65" viewBox="0 0 96 65" fill="none" xmlns="http://www.w3.org/2000/svg"><path d="M95.4531 58.1798C95.3369 57.8883 95.2286 57.6466 95.128 57.4529C93.463 53.9629 90.2814 49.6793 85.5849 44.6007L85.4857 44.4844L85.436 44.4273L85.3858 44.3689H85.3354C83.2039 42.004 81.8541 40.4139 81.2889 39.5998C80.2547 38.0491 80.023 36.4794 80.5882 34.8889C80.9875 33.6872 82.4876 31.1494 85.085 27.2721C86.4512 25.2172 87.5332 23.5703 88.3322 22.3295C94.0951 13.4127 96.5936 7.71472 95.8271 5.23336L95.5294 4.6535C95.3294 4.30441 94.8131 3.98504 93.9814 3.69379C93.1477 3.40315 92.0821 3.35508 90.7827 3.54878L76.3937 3.66446C76.1606 3.56833 75.8277 3.57729 75.3941 3.69379C74.961 3.81029 74.7443 3.86875 74.7443 3.86875L74.4939 4.01437L74.2951 4.18933C74.1285 4.30502 73.9453 4.50849 73.7452 4.79933C73.5463 5.08916 73.3798 5.42929 73.2468 5.81689C71.6803 10.5077 69.8991 14.869 67.9001 18.9005C66.6676 21.3044 65.5357 23.3878 64.502 25.1518C63.4697 26.9153 62.6036 28.2145 61.9047 29.0473C61.2047 29.8809 60.5729 30.5488 60.0056 31.0533C59.4391 31.558 59.0067 31.7712 58.7073 31.6932C58.4071 31.6152 58.1245 31.5378 57.857 31.4604C57.3909 31.1113 57.0161 30.6366 56.7335 30.0357C56.4496 29.4349 56.2585 28.6787 56.1586 27.7676C56.0592 26.856 56.0004 26.0718 55.9836 25.4125C55.968 24.7541 55.9752 23.8227 56.009 22.621C56.0436 21.4187 56.0592 20.6052 56.0592 20.1787C56.0592 18.7054 56.0839 17.1063 56.1334 15.3812C56.1838 13.6561 56.2246 12.2892 56.2587 11.2823C56.2926 10.2743 56.3084 9.20785 56.3084 8.08357C56.3084 6.95929 56.2496 6.07759 56.1334 5.43764C56.0186 4.79852 55.8424 4.17813 55.6101 3.57668C55.3765 2.97584 55.0346 2.51106 54.5859 2.18111C54.1363 1.85156 53.5774 1.59004 52.9122 1.39574C51.1466 0.930752 48.8984 0.679215 46.1665 0.64011C39.9714 0.562714 35.9907 1.02831 34.2253 2.03629C33.5259 2.46217 32.8929 3.04407 32.3269 3.78015C31.7272 4.63334 31.6436 5.09894 32.0765 5.17552C34.0754 5.524 35.4904 6.35764 36.3232 7.67561L36.6233 8.37401C36.8568 8.8779 37.0899 9.76999 37.3232 11.0491C37.5561 12.3281 37.7064 13.7431 37.7725 15.293C37.9388 18.1235 37.9388 20.5464 37.7725 22.5619C37.6058 24.5783 37.4483 26.148 37.298 27.2723C37.1476 28.3966 36.9229 29.3076 36.6233 30.0052C36.3232 30.703 36.1235 31.1295 36.0234 31.2843C35.9235 31.439 35.8402 31.5366 35.7741 31.5749C35.3411 31.768 34.8909 31.8664 34.4248 31.8664C33.9581 31.8664 33.3922 31.5947 32.7261 31.0517C32.0602 30.5087 31.3692 29.7628 30.6529 28.8129C29.9366 27.8627 29.1288 26.535 28.2292 24.8294C27.3302 23.1239 26.3975 21.1081 25.4315 18.7822L24.6323 17.0953C24.1326 16.0101 23.4501 14.43 22.5841 12.3564C21.7175 10.282 20.9515 8.27543 20.2857 6.33707C20.0195 5.52298 19.6196 4.90321 19.0867 4.47671L18.8367 4.30176C18.6704 4.14696 18.4035 3.9826 18.0374 3.80744C17.6708 3.63248 17.2883 3.50702 16.8882 3.42983L3.19827 3.54552C1.79933 3.54552 0.850143 3.91437 0.350347 4.65106L0.150324 4.99954C0.0503996 5.19364 0 5.50364 0 5.93033C0 6.35683 0.0999241 6.88027 0.299947 7.50005C2.29843 12.9667 4.47174 18.2387 6.81987 23.3172C9.168 28.3956 11.2085 32.4863 12.9401 35.5858C14.672 38.6876 16.4374 41.615 18.2362 44.3666C20.0351 47.1193 21.2257 48.8833 21.8083 49.6583C22.3916 50.4347 22.8497 51.0152 23.1828 51.4027L24.4321 52.7981C25.2315 53.7287 26.4053 54.8432 27.9543 56.1416C29.5035 57.4409 31.2187 58.7199 33.1006 59.9809C34.9829 61.2398 37.1727 62.2671 39.6711 63.0616C42.1692 63.857 44.6006 64.1761 46.9657 64.0222H52.7116C53.877 63.9051 54.7598 63.4786 55.3599 62.7425L55.5587 62.451C55.6924 62.2197 55.8175 61.8602 55.933 61.3764C56.0499 60.8919 56.108 60.3581 56.108 59.7774C56.0739 58.1107 56.1829 56.6087 56.4321 55.2713C56.6811 53.9344 56.965 52.9264 57.2824 52.2476C57.5997 51.5694 57.9578 50.997 58.3562 50.5331C58.7556 50.0681 59.0401 49.7864 59.2071 49.6894C59.373 49.5919 59.5054 49.5257 59.6054 49.486C60.4048 49.176 61.3455 49.4762 62.4291 50.388C63.5119 51.2991 64.5274 52.424 65.4773 53.7609C66.4266 55.099 67.5673 56.6003 68.8994 58.267C70.2323 59.9342 71.3978 61.1736 72.3967 61.9889L73.3956 62.6867C74.0627 63.1523 74.9288 63.5788 75.9949 63.9664C77.059 64.3538 77.9914 64.4507 78.792 64.257L91.5821 64.0248C92.8472 64.0248 93.8316 63.781 94.5298 63.2973C95.2295 62.8128 95.6451 62.2789 95.7791 61.6983C95.9128 61.117 95.92 60.4575 95.8045 59.7202C95.686 58.9847 95.5693 58.4704 95.4531 58.1798Z" fill="#EFA562"/></svg>
