<svg width="182" height="712" viewBox="0 0 182 712" fill="none" xmlns="http://www.w3.org/2000/svg">
<g filter="url(#filter0_d_204_23)">
<path d="M6.99999 549.677L175 549.677L175 566.477L32.44 566.477L130.84 625.277L130.84 627.677L32.44 686.477L175 686.477L175 703.277L6.99999 703.277L6.99999 682.397L100.6 626.477L6.99999 570.557L6.99999 549.677ZM159.16 494.523L159.16 412.923L175 412.923L175 511.323L6.99999 511.323L6.99999 414.123L22.84 414.123L22.84 494.523L82.36 494.523L82.36 420.123L98.2 420.123L98.2 494.523L159.16 494.523ZM6.99999 276.058L6.99999 259.258L175 259.258L175 276.058L96.52 276.058L96.52 367.258L175 367.258L175 384.058L6.99999 384.058L6.99999 367.258L80.68 367.258L80.68 276.058L6.99999 276.058ZM4.12 87.0128C4.12001 62.6928 12.6 42.1328 29.56 25.3328C46.36 8.53281 66.84 0.132814 91 0.132814C115.16 0.132814 135.72 8.53281 152.68 25.3328C169.48 42.1328 177.88 62.6928 177.88 87.0128C177.88 110.373 170.04 130.213 154.36 146.533C138.68 162.693 119.4 171.413 96.52 172.693L96.52 204.133L175 204.133L175 220.933L6.99999 220.933L7 204.133L80.68 204.133L80.68 172.453C58.76 169.893 40.52 160.613 25.96 144.613C11.4 128.613 4.12 109.413 4.12 87.0128ZM141.16 136.933C154.76 123.493 161.56 106.853 161.56 87.0128C161.56 67.1728 154.76 50.5328 141.16 37.0928C127.4 23.6528 110.68 16.9328 91 16.9328C71.32 16.9328 54.68 23.6528 41.08 37.0928C27.32 50.5328 20.44 67.1728 20.44 87.0128C20.44 106.853 27.32 123.493 41.08 136.933C54.68 150.373 71.32 157.093 91 157.093C110.68 157.093 127.4 150.373 141.16 136.933Z" fill="#1D1D1B"/>
</g>
<defs>
<filter id="filter0_d_204_23" x="0.119141" y="0.132812" width="181.762" height="711.144" filterUnits="userSpaceOnUse" color-interpolation-filters="sRGB">
<feFlood flood-opacity="0" result="BackgroundImageFix"/>
<feColorMatrix in="SourceAlpha" type="matrix" values="0 0 0 0 0 0 0 0 0 0 0 0 0 0 0 0 0 0 127 0" result="hardAlpha"/>
<feOffset dy="4"/>
<feGaussianBlur stdDeviation="2"/>
<feComposite in2="hardAlpha" operator="out"/>
<feColorMatrix type="matrix" values="0 0 0 0 0 0 0 0 0 0 0 0 0 0 0 0 0 0 0.25 0"/>
<feBlend mode="normal" in2="BackgroundImageFix" result="effect1_dropShadow_204_23"/>
<feBlend mode="normal" in="SourceGraphic" in2="effect1_dropShadow_204_23" result="shape"/>
</filter>
</defs>
</svg>
