<svg width="1460" height="210" viewBox="0 0 1460 210" fill="none" xmlns="http://www.w3.org/2000/svg">
<g filter="url(#filter0_d_204_20)">
<path d="M45.1543 2H52.1543V72H45.1543V42.5C39.0876 45.5 32.7543 47 26.1543 47C19.4876 47 14.1543 45.1333 10.1543 41.4C6.1543 37.6667 4.1543 32.8667 4.1543 27V2H11.1543V27C11.1543 31.0667 12.4543 34.3333 15.0543 36.8C17.721 39.2 21.421 40.4 26.1543 40.4C32.7543 40.4 39.0876 38.9 45.1543 35.9V2ZM75.1543 65.4H109.154V72H68.1543V2H108.654V8.6H75.1543V33.4H106.154V40H75.1543V65.4ZM114.682 72V65.8C119.548 66.4667 123.182 64.9667 125.582 61.3C128.048 57.5667 129.282 50.7667 129.282 40.9V2H174.682V72H167.682V8.6H136.282V41.1C136.282 47.4333 135.782 52.7333 134.782 57C133.782 61.2667 132.282 64.5333 130.282 66.8C128.348 69 126.115 70.5 123.582 71.3C121.115 72.0333 118.148 72.2667 114.682 72ZM248.613 62.7C241.613 69.7 233.046 73.2 222.913 73.2C212.78 73.2 204.213 69.7 197.213 62.7C190.213 55.6333 186.713 47.0667 186.713 37C186.713 26.9333 190.213 18.4 197.213 11.4C204.213 4.33333 212.78 0.799999 222.913 0.799999C233.046 0.799999 241.613 4.33333 248.613 11.4C255.613 18.4 259.113 26.9333 259.113 37C259.113 47.0667 255.613 55.6333 248.613 62.7ZM202.113 57.9C207.713 63.5667 214.646 66.4 222.913 66.4C231.18 66.4 238.113 63.5667 243.713 57.9C249.313 52.1667 252.113 45.2 252.113 37C252.113 28.8 249.313 21.8667 243.713 16.2C238.113 10.4667 231.18 7.59999 222.913 7.59999C214.646 7.59999 207.713 10.4667 202.113 16.2C196.513 21.8667 193.713 28.8 193.713 37C193.713 45.2 196.513 52.1667 202.113 57.9ZM309.884 35.7C313.284 37.1667 315.984 39.4 317.984 42.4C320.051 45.3333 321.084 48.7 321.084 52.5C321.084 57.9 319.184 62.5 315.384 66.3C311.584 70.1 306.984 72 301.584 72H271.084V2H299.284C304.484 2 308.917 3.86666 312.584 7.59999C316.251 11.2667 318.084 15.6667 318.084 20.8C318.084 27.3333 315.351 32.3 309.884 35.7ZM299.284 8.6H278.084V33H299.284C302.551 33 305.317 31.8333 307.584 29.5C309.917 27.1 311.084 24.2 311.084 20.8C311.084 17.4667 309.917 14.6 307.584 12.2C305.317 9.8 302.551 8.6 299.284 8.6ZM301.584 65.4C305.051 65.4 307.984 64.1667 310.384 61.7C312.851 59.1667 314.084 56.1 314.084 52.5C314.084 48.9667 312.851 45.9333 310.384 43.4C307.984 40.8667 305.051 39.6 301.584 39.6H278.084V65.4H301.584ZM340.096 65.4H374.096V72H333.096V2H373.596V8.6H340.096V33.4H371.096V40H340.096V65.4ZM435.123 72H425.923L393.123 38.1V72H386.123V2H393.123V34L424.923 2H434.123L400.523 36L435.123 72ZM491.707 72L485.207 54.8H452.007L445.507 72H438.107L465.007 2H472.207L499.107 72H491.707ZM454.507 48.2H482.707L468.607 10.7L454.507 48.2ZM593.196 17.6C599.396 22.2667 602.496 28.7333 602.496 37C602.496 45.2667 599.396 51.7333 593.196 56.4C587.062 61.0667 578.929 63.6333 568.796 64.1V72H561.796V64.1C551.662 63.6333 543.496 61.0667 537.296 56.4C531.162 51.7333 528.096 45.2667 528.096 37C528.096 28.7333 531.162 22.2667 537.296 17.6C543.496 12.9333 551.662 10.3667 561.796 9.89999V2H568.796V9.89999C578.929 10.3667 587.062 12.9333 593.196 17.6ZM542.296 22.2C537.496 25.6667 535.096 30.6 535.096 37C535.096 43.4 537.496 48.3667 542.296 51.9C547.096 55.3667 553.596 57.3 561.796 57.7V16.3C553.596 16.7 547.096 18.6667 542.296 22.2ZM568.796 57.7C576.996 57.3 583.496 55.3667 588.296 51.9C593.096 48.3667 595.496 43.4 595.496 37C595.496 30.6 593.096 25.6667 588.296 22.2C583.496 18.6667 576.996 16.7 568.796 16.3V57.7ZM671.367 62.7C664.367 69.7 655.8 73.2 645.667 73.2C635.533 73.2 626.967 69.7 619.967 62.7C612.967 55.6333 609.467 47.0667 609.467 37C609.467 26.9333 612.967 18.4 619.967 11.4C626.967 4.33333 635.533 0.799999 645.667 0.799999C655.8 0.799999 664.367 4.33333 671.367 11.4C678.367 18.4 681.867 26.9333 681.867 37C681.867 47.0667 678.367 55.6333 671.367 62.7ZM624.867 57.9C630.467 63.5667 637.4 66.4 645.667 66.4C653.933 66.4 660.867 63.5667 666.467 57.9C672.067 52.1667 674.867 45.2 674.867 37C674.867 28.8 672.067 21.8667 666.467 16.2C660.867 10.4667 653.933 7.59999 645.667 7.59999C637.4 7.59999 630.467 10.4667 624.867 16.2C619.267 21.8667 616.467 28.8 616.467 37C616.467 45.2 619.267 52.1667 624.867 57.9ZM718.838 2C725.105 2 730.338 4.1 734.538 8.3C738.738 12.5 740.838 17.7333 740.838 24C740.838 30.2667 738.738 35.5 734.538 39.7C730.338 43.9 725.105 46 718.838 46H700.838V72H693.838V2H718.838ZM718.838 39.4C723.171 39.4 726.738 37.9667 729.538 35.1C732.405 32.1667 733.838 28.4667 733.838 24C733.838 19.5333 732.405 15.8667 729.538 13C726.738 10.0667 723.171 8.6 718.838 8.6H700.838V39.4H718.838ZM816.822 2V72H809.822V12.6L785.322 53.6H784.322L759.822 12.6V72H752.822V2H761.522L784.822 41L808.122 2H816.822ZM877.803 72V15L838.803 72H832.803V2H839.803V59L878.803 2H884.803V72H877.803ZM925.771 2C932.038 2 937.271 4.1 941.471 8.3C945.671 12.5 947.771 17.7333 947.771 24C947.771 30.2667 945.671 35.5 941.471 39.7C937.271 43.9 932.038 46 925.771 46H907.771V72H900.771V2H925.771ZM925.771 39.4C930.105 39.4 933.671 37.9667 936.471 35.1C939.338 32.1667 940.771 28.4667 940.771 24C940.771 19.5333 939.338 15.8667 936.471 13C933.671 10.0667 930.105 8.6 925.771 8.6H907.771V39.4H925.771ZM997.529 2H1004.73L981.429 56.7C979.095 62.3 976.129 66.3333 972.529 68.8C968.929 71.2667 964.462 72.3333 959.129 72V65.6C962.862 66 965.929 65.4667 968.329 64C970.795 62.4667 972.829 59.8333 974.429 56.1L975.829 52.8L951.729 2H958.929L979.129 45L997.529 2ZM1020.76 65.4H1054.76V72H1013.76V2H1054.26V8.6H1020.76V33.4H1051.76V40H1020.76V65.4ZM1110.79 2V8.6H1089.29V72H1082.29V8.6H1060.79V2H1110.79ZM81.0918 118H88.0918V188H81.0918V158.5C75.0251 161.5 68.6918 163 62.0918 163C55.4251 163 50.0918 161.133 46.0918 157.4C42.0918 153.667 40.0918 148.867 40.0918 143V118H47.0918V143C47.0918 147.067 48.3918 150.333 50.9918 152.8C53.6585 155.2 57.3585 156.4 62.0918 156.4C68.6918 156.4 75.0251 154.9 81.0918 151.9V118ZM111.092 181.4H145.092V188H104.092V118H144.592V124.6H111.092V149.4H142.092V156H111.092V181.4ZM150.619 188V181.8C155.486 182.467 159.119 180.967 161.519 177.3C163.986 173.567 165.219 166.767 165.219 156.9V118H210.619V188H203.619V124.6H172.219V157.1C172.219 163.433 171.719 168.733 170.719 173C169.719 177.267 168.219 180.533 166.219 182.8C164.286 185 162.052 186.5 159.519 187.3C157.052 188.033 154.086 188.267 150.619 188ZM284.55 178.7C277.55 185.7 268.984 189.2 258.85 189.2C248.717 189.2 240.15 185.7 233.15 178.7C226.15 171.633 222.65 163.067 222.65 153C222.65 142.933 226.15 134.4 233.15 127.4C240.15 120.333 248.717 116.8 258.85 116.8C268.984 116.8 277.55 120.333 284.55 127.4C291.55 134.4 295.05 142.933 295.05 153C295.05 163.067 291.55 171.633 284.55 178.7ZM238.05 173.9C243.65 179.567 250.584 182.4 258.85 182.4C267.117 182.4 274.05 179.567 279.65 173.9C285.25 168.167 288.05 161.2 288.05 153C288.05 144.8 285.25 137.867 279.65 132.2C274.05 126.467 267.117 123.6 258.85 123.6C250.584 123.6 243.65 126.467 238.05 132.2C232.45 137.867 229.65 144.8 229.65 153C229.65 161.2 232.45 168.167 238.05 173.9ZM345.821 151.7C349.221 153.167 351.921 155.4 353.921 158.4C355.988 161.333 357.021 164.7 357.021 168.5C357.021 173.9 355.121 178.5 351.321 182.3C347.521 186.1 342.921 188 337.521 188H307.021V118H335.221C340.421 118 344.855 119.867 348.521 123.6C352.188 127.267 354.021 131.667 354.021 136.8C354.021 143.333 351.288 148.3 345.821 151.7ZM335.221 124.6H314.021V149H335.221C338.488 149 341.255 147.833 343.521 145.5C345.855 143.1 347.021 140.2 347.021 136.8C347.021 133.467 345.855 130.6 343.521 128.2C341.255 125.8 338.488 124.6 335.221 124.6ZM337.521 181.4C340.988 181.4 343.921 180.167 346.321 177.7C348.788 175.167 350.021 172.1 350.021 168.5C350.021 164.967 348.788 161.933 346.321 159.4C343.921 156.867 340.988 155.6 337.521 155.6H314.021V181.4H337.521ZM376.033 181.4H410.033V188H369.033V118H409.533V124.6H376.033V149.4H407.033V156H376.033V181.4ZM471.061 188H461.861L429.061 154.1V188H422.061V118H429.061V150L460.861 118H470.061L436.461 152L471.061 188ZM565.168 133.6C571.368 138.267 574.468 144.733 574.468 153C574.468 161.267 571.368 167.733 565.168 172.4C559.035 177.067 550.902 179.633 540.768 180.1V188H533.768V180.1C523.635 179.633 515.468 177.067 509.268 172.4C503.135 167.733 500.068 161.267 500.068 153C500.068 144.733 503.135 138.267 509.268 133.6C515.468 128.933 523.635 126.367 533.768 125.9V118H540.768V125.9C550.902 126.367 559.035 128.933 565.168 133.6ZM514.268 138.2C509.468 141.667 507.068 146.6 507.068 153C507.068 159.4 509.468 164.367 514.268 167.9C519.068 171.367 525.568 173.3 533.768 173.7V132.3C525.568 132.7 519.068 134.667 514.268 138.2ZM540.768 173.7C548.968 173.3 555.468 171.367 560.268 167.9C565.068 164.367 567.468 159.4 567.468 153C567.468 146.6 565.068 141.667 560.268 138.2C555.468 134.667 548.968 132.7 540.768 132.3V173.7ZM643.339 178.7C636.339 185.7 627.773 189.2 617.639 189.2C607.506 189.2 598.939 185.7 591.939 178.7C584.939 171.633 581.439 163.067 581.439 153C581.439 142.933 584.939 134.4 591.939 127.4C598.939 120.333 607.506 116.8 617.639 116.8C627.773 116.8 636.339 120.333 643.339 127.4C650.339 134.4 653.839 142.933 653.839 153C653.839 163.067 650.339 171.633 643.339 178.7ZM596.839 173.9C602.439 179.567 609.373 182.4 617.639 182.4C625.906 182.4 632.839 179.567 638.439 173.9C644.039 168.167 646.839 161.2 646.839 153C646.839 144.8 644.039 137.867 638.439 132.2C632.839 126.467 625.906 123.6 617.639 123.6C609.373 123.6 602.439 126.467 596.839 132.2C591.239 137.867 588.439 144.8 588.439 153C588.439 161.2 591.239 168.167 596.839 173.9ZM690.811 118C697.077 118 702.311 120.1 706.511 124.3C710.711 128.5 712.811 133.733 712.811 140C712.811 146.267 710.711 151.5 706.511 155.7C702.311 159.9 697.077 162 690.811 162H672.811V188H665.811V118H690.811ZM690.811 155.4C695.144 155.4 698.711 153.967 701.511 151.1C704.377 148.167 705.811 144.467 705.811 140C705.811 135.533 704.377 131.867 701.511 129C698.711 126.067 695.144 124.6 690.811 124.6H672.811V155.4H690.811ZM788.795 118V188H781.795V128.6L757.295 169.6H756.295L731.795 128.6V188H724.795V118H733.495L756.795 157L780.095 118H788.795ZM849.775 188V131L810.775 188H804.775V118H811.775V175L850.775 118H856.775V188H849.775ZM897.744 118C904.011 118 909.244 120.1 913.444 124.3C917.644 128.5 919.744 133.733 919.744 140C919.744 146.267 917.644 151.5 913.444 155.7C909.244 159.9 904.011 162 897.744 162H879.744V188H872.744V118H897.744ZM897.744 155.4C902.077 155.4 905.644 153.967 908.444 151.1C911.311 148.167 912.744 144.467 912.744 140C912.744 135.533 911.311 131.867 908.444 129C905.644 126.067 902.077 124.6 897.744 124.6H879.744V155.4H897.744ZM969.501 118H976.701L953.401 172.7C951.068 178.3 948.101 182.333 944.501 184.8C940.901 187.267 936.435 188.333 931.101 188V181.6C934.835 182 937.901 181.467 940.301 180C942.768 178.467 944.801 175.833 946.401 172.1L947.801 168.8L923.701 118H930.901L951.101 161L969.501 118ZM992.732 181.4H1026.73V188H985.732V118H1026.23V124.6H992.732V149.4H1023.73V156H992.732V181.4ZM1082.76 118V124.6H1061.26V188H1054.26V124.6H1032.76V118H1082.76Z" fill="#1D1D1B"/>
<path d="M1178.49 73.2C1167.89 73.2 1159.12 69.7 1152.19 62.7C1145.26 55.7 1141.79 47.1333 1141.79 37C1141.79 26.8667 1145.26 18.3 1152.19 11.3C1159.12 4.3 1167.89 0.799999 1178.49 0.799999C1184.96 0.799999 1190.89 2.36667 1196.29 5.5C1201.69 8.56666 1205.86 12.7333 1208.79 18L1202.59 21.6C1200.39 17.3333 1197.12 13.9333 1192.79 11.4C1188.46 8.86666 1183.69 7.59999 1178.49 7.59999C1169.76 7.59999 1162.62 10.4333 1157.09 16.1C1151.56 21.7667 1148.79 28.7333 1148.79 37C1148.79 45.2667 1151.56 52.2333 1157.09 57.9C1162.62 63.5667 1169.76 66.4 1178.49 66.4C1183.69 66.4 1188.46 65.1333 1192.79 62.6C1197.12 60.0667 1200.39 56.6667 1202.59 52.4L1208.79 55.9C1205.92 61.1667 1201.76 65.3667 1196.29 68.5C1190.89 71.6333 1184.96 73.2 1178.49 73.2ZM1245.3 2C1251.57 2 1256.8 4.1 1261 8.3C1265.2 12.5 1267.3 17.7333 1267.3 24C1267.3 30.2667 1265.2 35.5 1261 39.7C1256.8 43.9 1251.57 46 1245.3 46H1227.3V72H1220.3V2H1245.3ZM1245.3 39.4C1249.64 39.4 1253.2 37.9667 1256 35.1C1258.87 32.1667 1260.3 28.4667 1260.3 24C1260.3 19.5333 1258.87 15.8667 1256 13C1253.2 10.0667 1249.64 8.6 1245.3 8.6H1227.3V39.4H1245.3ZM1286.29 65.4H1320.29V72H1279.29V2H1319.79V8.6H1286.29V33.4H1317.29V40H1286.29V65.4ZM1382.31 65.4H1389.81V85.4H1382.81V72H1332.81V85.4H1325.81V65.4H1331.51C1336.11 60 1338.41 51.6667 1338.41 40.4V2H1382.31V65.4ZM1339.81 65.4H1375.31V8.6H1345.41V40.6C1345.41 51.6667 1343.55 59.9333 1339.81 65.4ZM1447.96 72L1441.46 54.8H1408.26L1401.76 72H1394.36L1421.26 2H1428.46L1455.36 72H1447.96ZM1410.76 48.2H1438.96L1424.86 10.7L1410.76 48.2ZM1150.46 189.2C1139.86 189.2 1131.1 185.7 1124.16 178.7C1117.23 171.7 1113.76 163.133 1113.76 153C1113.76 142.867 1117.23 134.3 1124.16 127.3C1131.1 120.3 1139.86 116.8 1150.46 116.8C1156.93 116.8 1162.86 118.367 1168.26 121.5C1173.66 124.567 1177.83 128.733 1180.76 134L1174.56 137.6C1172.36 133.333 1169.1 129.933 1164.76 127.4C1160.43 124.867 1155.66 123.6 1150.46 123.6C1141.73 123.6 1134.6 126.433 1129.06 132.1C1123.53 137.767 1120.76 144.733 1120.76 153C1120.76 161.267 1123.53 168.233 1129.06 173.9C1134.6 179.567 1141.73 182.4 1150.46 182.4C1155.66 182.4 1160.43 181.133 1164.76 178.6C1169.1 176.067 1172.36 172.667 1174.56 168.4L1180.76 171.9C1177.9 177.167 1173.73 181.367 1168.26 184.5C1162.86 187.633 1156.93 189.2 1150.46 189.2ZM1217.28 118C1223.54 118 1228.78 120.1 1232.98 124.3C1237.18 128.5 1239.28 133.733 1239.28 140C1239.28 146.267 1237.18 151.5 1232.98 155.7C1228.78 159.9 1223.54 162 1217.28 162H1199.28V188H1192.28V118H1217.28ZM1217.28 155.4C1221.61 155.4 1225.18 153.967 1227.98 151.1C1230.84 148.167 1232.28 144.467 1232.28 140C1232.28 135.533 1230.84 131.867 1227.98 129C1225.18 126.067 1221.61 124.6 1217.28 124.6H1199.28V155.4H1217.28ZM1258.26 181.4H1292.26V188H1251.26V118H1291.76V124.6H1258.26V149.4H1289.26V156H1258.26V181.4ZM1354.29 181.4H1361.79V201.4H1354.79V188H1304.79V201.4H1297.79V181.4H1303.49C1308.09 176 1310.39 167.667 1310.39 156.4V118H1354.29V181.4ZM1311.79 181.4H1347.29V124.6H1317.39V156.6C1317.39 167.667 1315.52 175.933 1311.79 181.4ZM1412.18 118H1419.38L1396.08 172.7C1393.74 178.3 1390.78 182.333 1387.18 184.8C1383.58 187.267 1379.11 188.333 1373.78 188V181.6C1377.51 182 1380.58 181.467 1382.98 180C1385.44 178.467 1387.48 175.833 1389.08 172.1L1390.48 168.8L1366.38 118H1373.58L1393.78 161L1412.18 118Z" fill="#EFA562"/>
</g>
<defs>
<filter id="filter0_d_204_20" x="0.154297" y="0.799805" width="1459.2" height="208.6" filterUnits="userSpaceOnUse" color-interpolation-filters="sRGB">
<feFlood flood-opacity="0" result="BackgroundImageFix"/>
<feColorMatrix in="SourceAlpha" type="matrix" values="0 0 0 0 0 0 0 0 0 0 0 0 0 0 0 0 0 0 127 0" result="hardAlpha"/>
<feOffset dy="4"/>
<feGaussianBlur stdDeviation="2"/>
<feComposite in2="hardAlpha" operator="out"/>
<feColorMatrix type="matrix" values="0 0 0 0 0 0 0 0 0 0 0 0 0 0 0 0 0 0 0.25 0"/>
<feBlend mode="normal" in2="BackgroundImageFix" result="effect1_dropShadow_204_20"/>
<feBlend mode="normal" in="SourceGraphic" in2="effect1_dropShadow_204_20" result="shape"/>
</filter>
</defs>
</svg>
